<svg width="36" height="41" viewBox="0 0 36 41" fill="none" xmlns="http://www.w3.org/2000/svg">
<path d="M17.5506 0.333402C17.337 0.333577 17.1118 0.333761 16.9008 0.358945C14.4473 0.563609 12.1927 1.60584 10.5871 3.50455C8.83974 5.57084 8.41719 7.74786 8.43766 10.3784L3.76334 10.3713C3.55396 10.3711 3.33752 10.3651 3.11803 10.359C2.50817 10.3421 1.87472 10.3246 1.30343 10.4293C0.9589 10.4924 0.658272 10.66 0.41598 10.9122C-0.00822495 11.3538 -0.0185329 11.9116 0.00903202 12.4831C0.0525083 13.3841 0.129893 14.2863 0.207189 15.1875C0.249238 15.6777 0.291298 16.168 0.327841 16.6576L1.10367 26.6823L1.48116 31.5233C1.49975 31.7623 1.5146 32.0037 1.52952 32.246C1.58283 33.1124 1.63692 33.9915 1.86565 34.8203C2.26078 36.2297 3.0439 37.4995 4.12575 38.4858C5.07124 39.3443 6.21406 39.9569 7.45289 40.2685C8.5007 40.5214 9.71804 40.4928 10.8615 40.4659C11.2019 40.4579 11.5356 40.45 11.8565 40.4498L18.1492 40.4479L23.645 40.4503C23.9453 40.4503 24.2543 40.4577 24.5672 40.4651C25.5823 40.4892 26.6404 40.5144 27.589 40.2933C28.9235 39.9826 30.274 39.25 31.2482 38.2841C32.1549 37.3847 32.8792 36.184 33.1957 34.9433C33.4379 33.9942 33.4987 32.9532 33.5576 31.9433C33.5766 31.6178 33.5954 31.2953 33.6201 30.9803L34.1359 24.3409L34.779 16.1888C34.8102 15.7861 34.8504 15.3792 34.8908 14.9714C34.9783 14.0874 35.0664 13.1969 35.0644 12.3233C35.0634 11.786 34.9497 11.2847 34.5647 10.8857C34.2997 10.6107 33.8666 10.4765 33.5 10.4167C32.9506 10.3271 32.3481 10.3431 31.7653 10.3585C31.5498 10.3642 31.337 10.3699 31.1306 10.3701C29.6605 10.3672 28.1899 10.3724 26.7198 10.3856L26.6566 10.3865C26.6911 7.56945 26.064 5.15213 24.0388 3.09182C22.3465 1.33842 20.0179 0.343583 17.5814 0.333374L17.5506 0.333402ZM26.4597 16.402L26.539 16.4065C26.5411 16.4119 26.543 16.4169 26.5449 16.4216C26.5459 16.424 26.5469 16.4264 26.5478 16.4286C26.5513 16.437 26.5544 16.4443 26.5571 16.4506L26.5605 16.4582C26.575 16.4911 26.5776 16.4971 26.5769 16.5501C26.5516 20.0044 25.627 24.4518 23.1754 26.9816C20.9051 29.3243 17.3796 30.4739 14.1646 30.5376C15.6621 27.7211 18.0685 25.05 20.5507 23.0661C20.9346 22.7596 21.3364 22.4825 21.7386 22.2052C21.9975 22.0267 22.2565 21.8481 22.5108 21.6615C22.7578 21.4803 23.0903 21.2344 23.1253 20.9039C23.1574 20.5996 22.9955 20.3634 22.805 20.146C22.5381 19.9912 22.3426 19.9267 22.0378 20.0161C21.6051 20.1431 21.169 20.4633 20.7755 20.7522C20.6713 20.8288 20.5699 20.9032 20.4725 20.9712C17.2897 23.2249 14.6451 26.1548 12.728 29.5507C12.6633 26.7878 13.2925 24.4733 14.987 22.2509C17.5299 18.9156 22.3971 16.9555 26.4597 16.402ZM1.75276 12.1016L33.3299 12.1011C33.2178 13.1646 33.1452 14.2378 33.0727 15.3093C33.0323 15.9063 32.992 16.5033 32.9448 17.0975L32.0946 27.7522L31.7766 31.6784C31.7625 31.8489 31.7496 32.0202 31.7366 32.192C31.6856 32.8693 31.6341 33.5529 31.5034 34.2161C31.3693 34.8967 31.1087 35.4883 30.7557 36.0819C30.6196 36.2885 30.4718 36.4873 30.3134 36.6774C29.398 37.7712 27.8953 38.586 26.468 38.6939C25.6908 38.7526 24.8911 38.7379 24.0989 38.7233C23.7561 38.717 23.4145 38.7107 23.0767 38.7104L16.5255 38.7085L11.3123 38.7109C11.0609 38.711 10.805 38.7163 10.5471 38.7217C9.75651 38.738 8.94698 38.7548 8.1871 38.6239C7.19041 38.4499 6.25897 38.0109 5.49092 37.3526C4.57091 36.5768 3.91063 35.5379 3.59911 34.3755C3.38601 33.6051 3.33287 32.7842 3.28069 31.9781C3.26758 31.7757 3.25454 31.5742 3.23903 31.3746L2.92897 27.3797L1.75276 12.1016ZM27.1609 14.5507L27.1374 14.5532C22.3441 15.1077 16.8872 17.0792 13.7889 20.962C11.7975 23.4575 10.7095 26.7034 11.0688 29.8997C11.1477 30.6016 11.3067 31.2725 11.5358 31.94C11.5099 32.0063 11.4783 32.0857 11.4423 32.1762C11.0489 33.1649 10.1346 35.463 10.4526 36.1426C10.5445 36.339 10.7319 36.4708 10.9351 36.5354C11.0188 36.5617 11.1031 36.5768 11.1902 36.587C11.4587 36.5427 11.7069 36.4873 11.8686 36.2472C12.0422 35.9887 12.2199 35.3681 12.3719 34.8372C12.4443 34.5844 12.511 34.3518 12.5685 34.1884C12.7655 33.6289 12.9891 33.0787 13.2124 32.5292L13.215 32.5228C13.2411 32.4585 13.2673 32.3942 13.2934 32.3299C17.246 32.3415 21.4676 31.1043 24.3271 28.2829C27.5249 25.1271 28.3304 20.0383 28.3367 15.7318C28.3372 15.3922 28.3139 14.9893 28.0655 14.7296C27.9128 14.5699 27.6829 14.5218 27.4695 14.5265C27.3665 14.5287 27.2635 14.5397 27.1609 14.5507ZM17.1663 2.06048C17.3194 2.051 17.473 2.04244 17.6261 2.04351C19.5036 2.05669 21.3835 2.89639 22.7029 4.21957C24.4992 6.02125 24.8667 7.93313 24.8706 10.3786L17.9917 10.3748L10.2512 10.3844C10.192 8.28242 10.5305 6.36251 11.9095 4.70274C13.2343 3.10825 15.1251 2.24283 17.1663 2.06048Z" fill="#030A06"/>
</svg>
