<svg xmlns="http://www.w3.org/2000/svg" aria-hidden="true" style="position:absolute;width:0;height:0;overflow:hidden">
  <defs>
    <symbol id="icon-instagram" viewBox="0 0 31 32">
      <path d="M15.607 6.666c3.128 0 3.498.014 4.728.069 1.143.05 1.76.242 2.172.402a3.63 3.63 0 0 1 1.344.874c.412.412.663.8.878 1.345.16.412.352 1.033.402 2.172.055 1.235.069 1.605.069 4.728s-.014 3.498-.069 4.728c-.05 1.143-.242 1.76-.402 2.172a3.617 3.617 0 0 1-.874 1.344c-.412.412-.8.663-1.344.878-.412.16-1.034.352-2.172.402-1.235.055-1.605.069-4.728.069s-3.498-.014-4.728-.069c-1.143-.05-1.76-.242-2.172-.402a3.629 3.629 0 0 1-1.345-.874 3.667 3.667 0 0 1-.878-1.344c-.16-.412-.352-1.034-.402-2.172-.055-1.235-.069-1.605-.069-4.728s.014-3.498.069-4.728c.05-1.143.242-1.76.402-2.172.211-.544.467-.937.874-1.345.412-.412.8-.663 1.345-.878.412-.16 1.033-.352 2.172-.402 1.23-.055 1.601-.069 4.728-.069h.001zm0-2.107c-3.178 0-3.575.014-4.824.069-1.244.055-2.099.256-2.839.544a5.696 5.696 0 0 0-2.076 1.353 5.728 5.728 0 0 0-1.353 2.071c-.288.745-.489 1.596-.544 2.839-.055 1.253-.069 1.65-.069 4.829s.014 3.575.069 4.824c.055 1.244.256 2.099.544 2.839a5.709 5.709 0 0 0 1.353 2.076 5.721 5.721 0 0 0 2.071 1.349c.746.288 1.596.489 2.839.544 1.248.055 1.646.069 4.824.069s3.576-.014 4.824-.069c1.244-.055 2.099-.256 2.839-.544.768-.297 1.422-.699 2.071-1.349s1.052-1.303 1.349-2.071c.288-.746.489-1.596.544-2.839.055-1.248.069-1.646.069-4.824s-.014-3.575-.069-4.824c-.055-1.244-.256-2.099-.544-2.839a5.483 5.483 0 0 0-1.34-2.081 5.721 5.721 0 0 0-2.071-1.349c-.746-.288-1.596-.489-2.839-.544-1.253-.059-1.651-.073-4.829-.073l-.001.001z"/>
      <path d="M15.607 10.252a6.014 6.014 0 1 0 6.013 6.013 6.015 6.015 0 0 0-6.013-6.013zm0 9.913a3.9 3.9 0 1 1 0-7.8 3.9 3.9 0 0 1 0 7.8zM23.261 10.014a1.404 1.404 0 1 1-2.808 0 1.404 1.404 0 0 1 2.808 0z"/>
    </symbol>
    <symbol id="icon-linkedIn" viewBox="0 0 31 32">
      <path d="M25.122 4.558H6.098a2.202 2.202 0 0 0-2.195 2.195v19.024c0 1.207.988 2.195 2.195 2.195h19.024a2.202 2.202 0 0 0 2.195-2.195V6.753a2.202 2.202 0 0 0-2.195-2.195zM12.683 23.582H9.756V13.338h2.927v10.244zM11.22 11.875c-.809 0-1.463-.654-1.463-1.463s.654-1.463 1.463-1.463 1.463.654 1.463 1.463-.654 1.463-1.463 1.463zm11.707 11.707H20v-5.854c0-.809-.654-1.463-1.463-1.463s-1.463.654-1.463 1.463v5.854h-2.927V13.338h2.927v1.815c.604-.828 1.527-1.815 2.561-1.815 1.82 0 3.293 1.638 3.293 3.659v6.585z"/>
    </symbol>
    <symbol id="icon-menu" viewBox="0 0 32 32">
      <path d="M5.333 8h21.333v2.667H5.333V8zm0 6.667h21.333v2.667H5.333v-2.667zm0 6.666h21.333V24H5.333v-2.667z"/>
    </symbol>
    <symbol id="icon-star" viewBox="0 0 32 32">
      <path d="M14.513 2.5c.55-1.306 2.423-1.306 2.973 0l3.246 7.71a1.61 1.61 0 0 0 1.358.975l8.426.667c1.428.113 2.006 1.873.919 2.793l-6.419 5.432a1.579 1.579 0 0 0-.519 1.577l1.961 8.123c.332 1.376-1.183 2.464-2.405 1.727l-7.214-4.353a1.626 1.626 0 0 0-1.678 0l-7.214 4.353c-1.222.737-2.738-.35-2.405-1.727l1.961-8.123c.14-.58-.06-1.189-.519-1.577l-6.42-5.432c-1.088-.92-.509-2.68.919-2.793l8.426-.667a1.61 1.61 0 0 0 1.358-.975l3.246-7.71z"/>
    </symbol>
    <symbol id="icon-x" viewBox="0 0 32 32">
      <path d="m21.589 8.459-5.657 5.656-5.656-5.656-1.885 1.885L14.047 16l-5.656 5.656 1.885 1.885 5.656-5.656 5.657 5.656 1.885-1.885L17.818 16l5.656-5.656-1.885-1.885z"/>
    </symbol>
    <symbol id="icon-youtube" viewBox="0 0 31 32">
      <path d="M28.089 10.025a3.258 3.258 0 0 0-2.292-2.297C23.76 7.169 15.61 7.16 15.61 7.16s-8.148-.009-10.187.526a3.326 3.326 0 0 0-2.297 2.313c-.537 2.037-.542 6.262-.542 6.262s-.005 4.246.528 6.262a3.26 3.26 0 0 0 2.293 2.296c2.058.559 10.185.568 10.185.568s8.15.009 10.187-.524a3.269 3.269 0 0 0 2.299-2.293c.539-2.036.542-6.259.542-6.259s.026-4.247-.529-6.284zM13.003 20.174l.006-7.805 6.773 3.909-6.78 3.896z"/>
    </symbol>
  </defs>
</svg>